Coordinates
version=1
nRows=11
nColumns=40
inDegrees=yes

Units are S.I. units (second, meters, Newtons, ...)
If the header above contains a line with 'inDegrees', this indicates whether rotational values are in degrees (yes) or radians (no).

endheader
time	pelvis_tilt	pelvis_list	pelvis_rotation	pelvis_tx	pelvis_ty	pelvis_tz	hip_flexion_r	hip_adduction_r	hip_rotation_r	knee_angle_r	knee_angle_r_beta	ankle_angle_r	subtalar_angle_r	mtp_angle_r	hip_flexion_l	hip_adduction_l	hip_rotation_l	knee_angle_l	knee_angle_l_beta	ankle_angle_l	subtalar_angle_l	mtp_angle_l	lumbar_extension	lumbar_bending	lumbar_rotation	arm_flex_r	arm_add_r	arm_rot_r	elbow_flex_r	pro_sup_r	wrist_flex_r	wrist_dev_r	arm_flex_l	arm_add_l	arm_rot_l	elbow_flex_l	pro_sup_l	wrist_flex_l	wrist_dev_l
      5.54000000	     48.44640757	      0.54324677	   -178.90874332	      0.45538138	      0.76111001	     -0.61285645	     85.84009136	    -11.01077019	    -11.40132343	     38.65651707	      0.67468350	      1.99325178	      0.00000000	      0.00000000	     85.46195767	     -8.35129781	     -3.27318949	     36.97998612	      0.64542252	      0.20943107	      0.00000000	      0.00000000	    -28.16617402	      5.33742588	      4.21497859	     64.66151086	    -10.86101767	     48.52507868	      0.95781798	     85.77051109	      0.00000000	      0.00000000	     52.55628747	     -0.67012203	     61.12037777	      0.53147505	      2.34923893	      0.00000000	      0.00000000
      5.54500000	     48.28862371	      0.57433812	   -179.00696992	      0.45513197	      0.76271414	     -0.61309358	     85.29229288	    -10.76666230	    -11.36052593	     37.94726700	      0.66230475	      1.59424006	      0.00000000	      0.00000000	     84.93470726	     -8.45419397	     -3.35005939	     36.32273385	      0.63395130	     -0.14655425	      0.00000000	      0.00000000	    -28.26697189	      5.33167315	      4.33803838	     64.57685877	    -10.88392138	     48.66543726	      0.95258465	     85.78918355	      0.00000000	      0.00000000	     52.52631478	     -0.67965018	     61.20932250	      0.52940999	      2.35670010	      0.00000000	      0.00000000
      5.55000000	     48.25124214	      0.58598054	   -178.88934501	      0.45499771	      0.76358149	     -0.61273732	     85.14058717	    -10.89898110	    -11.46129363	     37.82223510	      0.66012253	      1.58413853	      0.00000000	      0.00000000	     84.78892867	     -8.33474493	     -3.43973853	     36.18889636	      0.63161539	     -0.20328384	      0.00000000	      0.00000000	    -28.10991619	      5.44569879	      4.23390497	     64.35073175	    -10.90341472	     48.67990543	      0.94068761	     85.79856418	      0.00000000	      0.00000000	     52.28530548	     -0.65705503	     61.19885810	      0.53161562	      2.35463543	      0.00000000	      0.00000000
      5.55500000	     48.17880762	      0.62134831	   -178.95325838	      0.45483976	      0.76493965	     -0.61289946	     84.73520235	    -10.77295640	    -11.67012660	     37.22896449	      0.64976801	      1.34862259	      0.00000000	      0.00000000	     84.36026614	     -8.42908756	     -3.64937863	     35.52846425	      0.62008868	     -0.45416026	      0.00000000	      0.00000000	    -28.08015865	      5.45620956	      4.28975565	     64.22111323	    -10.90579507	     48.80503753	      0.94919940	     85.80472555	      0.00000000	      0.00000000	     52.20443511	     -0.69859862	     61.28488601	      0.53178319	      2.35787981	      0.00000000	      0.00000000
      5.56000000	     48.10674589	      0.62417814	   -178.84381791	      0.45466950	      0.76571863	     -0.61253808	     84.55600854	    -10.88549419	    -11.69497506	     37.11925387	      0.64785320	      1.30967588	      0.00000000	      0.00000000	     84.20732082	     -8.29596429	     -3.65196987	     35.44438855	      0.61862128	     -0.52439661	      0.00000000	      0.00000000	    -27.93435516	      5.54983015	      4.19934615	     63.97762763	    -10.93139936	     48.82150661	      0.92336160	     85.81254661	      0.00000000	      0.00000000	     51.95616643	     -0.65196214	     61.28041369	      0.53139863	      2.35795019	      0.00000000	      0.00000000
      5.56500000	     47.97523630	      0.65550908	   -178.95188197	      0.45449874	      0.76730365	     -0.61279089	     84.04145233	    -10.61606073	    -11.62161948	     36.37823151	      0.63491992	      0.91679129	      0.00000000	      0.00000000	     83.69456825	     -8.40672150	     -3.74237449	     34.74666690	      0.60644374	     -0.90812455	      0.00000000	      0.00000000	    -27.99922136	      5.54873219	      4.34502245	     63.89666544	    -10.99865898	     48.98121709	      0.93368325	     85.78679166	      0.00000000	      0.00000000	     51.88298533	     -0.64627511	     61.49659035	      0.53008307	      2.36248462	      0.00000000	      0.00000000
      5.57000000	     47.92225245	      0.63968388	   -178.84645024	      0.45438216	      0.76799749	     -0.61242966	     83.88543287	    -10.75190904	    -11.72858080	     36.26482589	      0.63294061	      0.91102569	      0.00000000	      0.00000000	     83.55819147	     -8.27870502	     -3.79278584	     34.65840066	      0.60490320	     -0.95339261	      0.00000000	      0.00000000	    -27.81954914	      5.62550884	      4.24403250	     63.63799762	    -11.01855295	     48.99611027	      0.91704473	     85.79344260	      0.00000000	      0.00000000	     51.64586899	     -0.62407852	     61.50566949	      0.52904570	      2.36035121	      0.00000000	      0.00000000
      5.57500000	     47.84169987	      0.60440156	   -178.95707687	      0.45421430	      0.76925983	     -0.61263803	     83.53743544	    -10.61544378	    -11.93070939	     35.76121603	      0.62415096	      0.72931897	      0.00000000	      0.00000000	     83.14258454	     -8.36991500	     -3.94107449	     34.09513358	      0.59507234	     -1.13033108	      0.00000000	      0.00000000	    -27.77557682	      5.55645806	      4.29085818	     63.49246291	    -10.98933019	     49.14537526	      0.93891431	     85.79395571	      0.00000000	      0.00000000	     51.53298027	     -0.69380487	     61.68201904	      0.53271346	      2.35634246	      0.00000000	      0.00000000
      5.58000000	     47.71675004	      0.62465514	   -178.96060229	      0.45403887	      0.77048766	     -0.61257657	     83.12854102	    -10.51512971	    -11.89949799	     35.25754866	      0.61536031	      0.46559118	      0.00000000	      0.00000000	     82.76704655	     -8.37058610	     -4.04228891	     33.65739561	      0.58743237	     -1.36266451	      0.00000000	      0.00000000	    -27.74215940	      5.60564465	      4.32374639	     63.32095386	    -11.03375421	     49.34902949	      0.93635888	     85.78829957	      0.00000000	      0.00000000	     51.35924767	     -0.67507484	     61.93849987	      0.52833019	      2.35752168	      0.00000000	      0.00000000
      5.58500000	     47.65290579	      0.61916662	   -178.85265208	      0.45391118	      0.77123164	     -0.61217558	     82.96609052	    -10.63428068	    -11.94995772	     35.14021341	      0.61331242	      0.43979266	      0.00000000	      0.00000000	     82.62726283	     -8.23876689	     -4.08515751	     33.56724133	      0.58585888	     -1.42929119	      0.00000000	      0.00000000	    -27.57107704	      5.69804958	      4.22360485	     63.08698784	    -11.05981462	     49.38973969	      0.91859888	     85.79254522	      0.00000000	      0.00000000	     51.09182679	     -0.64030808	     61.97384870	      0.52694872	      2.35515437	      0.00000000	      0.00000000
      5.59000000	     47.56944136	      0.60502825	   -178.93171055	      0.45380087	      0.77236146	     -0.61230484	     82.60634793	    -10.49571548	    -12.05609951	     34.61239935	      0.60410033	      0.21128388	      0.00000000	      0.00000000	     82.22123185	     -8.31187924	     -4.25073353	     32.99722194	      0.57591017	     -1.64460022	      0.00000000	      0.00000000	    -27.49116142	      5.65267670	      4.27393004	     62.90710156	    -11.08582900	     49.66321164	      0.92652803	     85.78874057	      0.00000000	      0.00000000	     50.96264805	     -0.69579363	     62.27484227	      0.52750110	      2.35095800	      0.00000000	      0.00000000
